{"title":"39 keihô dai sanjûkyû jô aka Keiho (1999","uid":11439332,"size":2084093287,"categoryP":"video","categoryS":"movies","magnet":"?xt=urn:btih:e642b63f54ecaa92338b30e8556f7e005613d4f8&amp;dn=39+keih%26ocirc%3B+dai+sanj%26ucirc%3Bky%26ucirc%3B+j%26ocirc%3B+aka+Keiho+%281999&amp;tr=udp%3A%2F%2Ftracker.openbittorrent.com%3A80&amp;tr=udp%3A%2F%2Fopen.demonii.com%3A1337&amp;tr=udp%3A%2F%2Ftracker.coppersurfer.tk%3A6969&amp;tr=udp%3A%2F%2Fexodus.desync.com%3A6969","seeders":2,"leechers":0,"uploader":"cavallone","files":1,"time":1415787064,"description":"Plot: 'Keiho' is a fascinating thriller dealing with memory, guilt and justice. A young actor is arrested for a brutal double murder. He confesses but pretty soon the possibility of him being mentally ill and therefore legally incompetent comes to the fore. A young female psychiatrist working on the case (called Kafka, interestingly enough!) becomes convinced that he is faking his apparent schizophrenia. All very good and 'Primal Fear' so far, but after that things get much more complicated, ambiguous and interesting. 'Keiho' is strongly acted, well written, and imaginatively directed, and will keep you guessing right until its' final scenes. Supposedly based on a true case, unresolved at the time of the movies original release, this is a real gem that beats 90% of Hollywood's lame and predictable thrillers at their own game. Try and see this one!\n\nRip specs:\n\nGeneral\nUnique ID                                : 215518912665496594061408339650307226544 (0xA2236EC899CFF27693C5FE7BA658FBB0)\nComplete name                            : Keiho (1999).mkv\nFormat                                   : Matroska\nFormat version                           : Version 4 / Version 2\nFile size                                : 1.94 GiB\nDuration                                 : 2h 13mn\nOverall bit rate                         : 2 084 Kbps\nEncoded date                             : UTC 2014-11-12 08:38:09\nWriting application                      : mkvmerge v6.1.0 ('Old Devil') built on Mar  2 2013 14:32:37\nWriting library                          : libebml v1.3.0 + libmatroska v1.4.0\n\nVideo\nID                                       : 1\nFormat                                   : AVC\nFormat/Info                              : Advanced Video Codec\nFormat profile                           : &lt;a class=&quot;__cf_email__&quot; href=&quot;/cdn-cgi/l/email-protection&quot; data-cfemail=&quot;92dafbf5fad2dea1bca3&quot;&gt;[email&amp;#160;protected]&lt;/a&gt;&lt;script cf-hash='f9e31' type=&quot;text/javascript&quot;&gt;\n/* &lt;![CDATA[ */!function(){try{var t=&quot;currentScript&quot;in document?document.currentScript:function(){for(var t=document.getElementsByTagName(&quot;script&quot;),e=t.length;e--;)if(t[e].getAttribute(&quot;cf-hash&quot;))return t[e]}();if(t&amp;&amp;t.previousSibling){var e,r,n,i,c=t.previousSibling,a=c.getAttribute(&quot;data-cfemail&quot;);if(a){for(e=&quot;&quot;,r=parseInt(a.substr(0,2),16),n=2;a.length-n;n+=2)i=parseInt(a.substr(n,2),16)^r,e+=String.fromCharCode(i);e=document.createTextNode(e),c.parentNode.replaceChild(e,c)}}}catch(u){}}();/* ]]&gt; */&lt;/script&gt;\nFormat settings, CABAC                   : Yes\nFormat settings, ReFrames                : 16 frames\nCodec ID                                 : V_MPEG4/ISO/AVC\nDuration                                 : 2h 13mn\nBit rate                                 : 1 900 Kbps\nWidth                                    : 706 pixels\nHeight                                   : 346 pixels\nDisplay aspect ratio                     : 16:9\nOriginal display aspect ratio            : 16:9\nFrame rate mode                          : Constant\nFrame rate                               : 23.976 fps\nColor space                              : YUV\nChroma subsampling                       : 4:2:0\nBit depth                                : 8 bits\nScan type                                : Progressive\nBits/(Pixel*Frame)                       : 0.324\nStream size                              : 1.72 GiB (89%)\nWriting library                          : x264 core 142 r2389 956c8d8\nEncoding settings                        : cabac=1 / ref=16 / deblock=1:-3:-3 / analyse=0x3:0x133 / me=umh / subme=11 / psy=1 / psy_rd=1,00:0,00 / mixed_ref=1 / me_range=32 / chroma_me=1 / trellis=2 / 8x8dct=1 / cqm=0 / deadzone=21,11 / fast_pskip=1 / chroma_qp_offset=-2 / threads=3 / lookahead_threads=1 / sliced_threads=0 / nr=0 / decimate=1 / interlaced=0 / bluray_compat=0 / constrained_intra=0 / bframes=14 / b_pyramid=2 / b_adapt=2 / b_bias=0 / direct=3 / weightb=1 / open_gop=0 / weightp=2 / keyint=240 / keyint_min=24 / scenecut=40 / intra_refresh=0 / rc_lookahead=60 / rc=abr / mbtree=1 / bitrate=1900 / ratetol=1,0 / qcomp=0,00 / qpmin=0 / qpmax=69 / qpstep=4 / ip_ratio=1,40 / aq=1:1,00\nLanguage                                 : Japanese\nDefault                                  : Yes\nForced                                   : No\nColor primaries                          : BT.601 NTSC\nTransfer characteristics                 : BT.709\nMatrix coefficients                      : BT.601\n\nAudio\nID                                       : 2\nFormat                                   : AC-3\nFormat/Info                              : Audio Coding 3\nMode extension                           : CM (complete main)\nFormat settings, Endianness              : Big\nCodec ID                                 : A_AC3\nDuration                                 : 2h 13mn\nBit rate mode                            : Constant\nBit rate                                 : 192 Kbps\nChannel(s)                               : 2 channels\nChannel positions                        : Front: L R\nSampling rate                            : 48.0 KHz\nBit depth                                : 16 bits\nCompression mode                         : Lossy\nStream size                              : 183 MiB (9%)\nLanguage                                 : Japanese\nDefault                                  : Yes\nForced                                   : No\n\nText\nID                                       : 3\nFormat                                   : VobSub\nMuxing mode                              : zlib\nCodec ID                                 : S_VOBSUB\nCodec ID/Info                            : The same subtitle format used on DVDs\nLanguage                                 : English\nDefault                                  : No\nForced                                   : No\n\nMenu\n00:00:00.000                             : en:Chapter 1\n00:08:44.607                             : en:Chapter 2\n00:21:37.212                             : en:Chapter 3\n00:34:02.957                             : en:Chapter 4\n00:44:39.259                             : en:Chapter 5\n00:52:56.256                             : en:Chapter 6\n01:03:10.870                             : en:Chapter 7\n01:10:52.831                             : en:Chapter 8\n01:21:44.816                             : en:Chapter 9\n01:29:29.030                             : en:Chapter 10\n01:46:23.543                             : en:Chapter 11\n02:01:32.118                             : en:Chapter 12\n\n\nMy rip","torrent":{"xt":"urn:btih:e642b63f54ecaa92338b30e8556f7e005613d4f8","amp;dn":"39+keih%26ocirc%3B+dai+sanj%26ucirc%3Bky%26ucirc%3B+j%26ocirc%3B+aka+Keiho+%281999","amp;tr":["udp%3A%2F%2Ftracker.openbittorrent.com%3A80","udp%3A%2F%2Fopen.demonii.com%3A1337","udp%3A%2F%2Ftracker.coppersurfer.tk%3A6969","udp%3A%2F%2Fexodus.desync.com%3A6969"],"infoHash":"e642b63f54ecaa92338b30e8556f7e005613d4f8","infoHashBuffer":{"type":"Buffer","data":[230,66,182,63,84,236,170,146,51,139,48,232,85,111,126,0,86,19,212,248]},"announce":[],"urlList":[]}}